<mxfile host="app.diagrams.net" agent="Mozilla/5.0 (Windows NT 10.0; Win64; x64) AppleWebKit/537.36 (KHTML, like Gecko) Chrome/141.0.0.0 Safari/537.36 Edg/141.0.0.0" version="28.2.7">
  <diagram name="Page-1" id="cOXXnzU-fcN8cA1hw9iw">
    <mxGraphModel dx="778" dy="476" grid="1" gridSize="10" guides="1" tooltips="1" connect="1" arrows="1" fold="1" page="1" pageScale="1" pageWidth="850" pageHeight="1100" math="0" shadow="0">
      <root>
        <mxCell id="0" />
        <mxCell id="1" parent="0" />
        <mxCell id="DbnUBTk9ZXZ1jzMU4C6u-1" value="Guest" style="shape=umlActor;verticalLabelPosition=bottom;verticalAlign=top;html=1;outlineConnect=0;" vertex="1" parent="1">
          <mxGeometry x="130" y="520" width="30" height="60" as="geometry" />
        </mxCell>
        <mxCell id="DbnUBTk9ZXZ1jzMU4C6u-2" value="" style="rounded=0;whiteSpace=wrap;html=1;" vertex="1" parent="1">
          <mxGeometry x="240" y="240" width="360" height="640" as="geometry" />
        </mxCell>
        <mxCell id="DbnUBTk9ZXZ1jzMU4C6u-3" value="Register" style="ellipse;whiteSpace=wrap;html=1;" vertex="1" parent="1">
          <mxGeometry x="265" y="280" width="105" height="50" as="geometry" />
        </mxCell>
        <mxCell id="DbnUBTk9ZXZ1jzMU4C6u-4" value="Login" style="ellipse;whiteSpace=wrap;html=1;" vertex="1" parent="1">
          <mxGeometry x="440" y="330" width="105" height="50" as="geometry" />
        </mxCell>
        <mxCell id="DbnUBTk9ZXZ1jzMU4C6u-5" value="Manage Profile" style="ellipse;whiteSpace=wrap;html=1;" vertex="1" parent="1">
          <mxGeometry x="300" y="380" width="125" height="60" as="geometry" />
        </mxCell>
        <mxCell id="DbnUBTk9ZXZ1jzMU4C6u-6" value="Browse Rooms" style="ellipse;whiteSpace=wrap;html=1;" vertex="1" parent="1">
          <mxGeometry x="265" y="480" width="125" height="60" as="geometry" />
        </mxCell>
        <mxCell id="DbnUBTk9ZXZ1jzMU4C6u-9" style="rounded=0;orthogonalLoop=1;jettySize=auto;html=1;exitX=0;exitY=0;exitDx=0;exitDy=0;entryX=1;entryY=1;entryDx=0;entryDy=0;dashed=1;endArrow=none;endFill=0;" edge="1" parent="1" source="DbnUBTk9ZXZ1jzMU4C6u-7" target="DbnUBTk9ZXZ1jzMU4C6u-6">
          <mxGeometry relative="1" as="geometry" />
        </mxCell>
        <mxCell id="DbnUBTk9ZXZ1jzMU4C6u-10" value="&amp;lt;&amp;lt; extend &amp;gt;&amp;gt;" style="edgeLabel;html=1;align=center;verticalAlign=middle;resizable=0;points=[];" vertex="1" connectable="0" parent="DbnUBTk9ZXZ1jzMU4C6u-9">
          <mxGeometry x="-0.0128" relative="1" as="geometry">
            <mxPoint as="offset" />
          </mxGeometry>
        </mxCell>
        <mxCell id="DbnUBTk9ZXZ1jzMU4C6u-7" value="Filter Rooms" style="ellipse;whiteSpace=wrap;html=1;" vertex="1" parent="1">
          <mxGeometry x="470" y="550" width="110" height="50" as="geometry" />
        </mxCell>
        <mxCell id="DbnUBTk9ZXZ1jzMU4C6u-16" style="rounded=0;orthogonalLoop=1;jettySize=auto;html=1;exitX=0.5;exitY=1;exitDx=0;exitDy=0;entryX=0;entryY=0;entryDx=0;entryDy=0;endArrow=none;endFill=0;dashed=1;" edge="1" parent="1" source="DbnUBTk9ZXZ1jzMU4C6u-11" target="DbnUBTk9ZXZ1jzMU4C6u-14">
          <mxGeometry relative="1" as="geometry" />
        </mxCell>
        <mxCell id="DbnUBTk9ZXZ1jzMU4C6u-17" value="&amp;lt;&amp;lt; include &amp;gt;&amp;gt;" style="edgeLabel;html=1;align=center;verticalAlign=middle;resizable=0;points=[];" vertex="1" connectable="0" parent="DbnUBTk9ZXZ1jzMU4C6u-16">
          <mxGeometry x="-0.0419" y="-1" relative="1" as="geometry">
            <mxPoint as="offset" />
          </mxGeometry>
        </mxCell>
        <mxCell id="DbnUBTk9ZXZ1jzMU4C6u-11" value="Book Rooms" style="ellipse;whiteSpace=wrap;html=1;" vertex="1" parent="1">
          <mxGeometry x="265" y="570" width="125" height="60" as="geometry" />
        </mxCell>
        <mxCell id="DbnUBTk9ZXZ1jzMU4C6u-14" value="Checkout" style="ellipse;whiteSpace=wrap;html=1;" vertex="1" parent="1">
          <mxGeometry x="470" y="660" width="105" height="50" as="geometry" />
        </mxCell>
        <mxCell id="DbnUBTk9ZXZ1jzMU4C6u-18" value="Reserve Services" style="ellipse;whiteSpace=wrap;html=1;" vertex="1" parent="1">
          <mxGeometry x="265" y="680" width="125" height="60" as="geometry" />
        </mxCell>
        <mxCell id="DbnUBTk9ZXZ1jzMU4C6u-19" value="View Order History" style="ellipse;whiteSpace=wrap;html=1;" vertex="1" parent="1">
          <mxGeometry x="430" y="740" width="125" height="60" as="geometry" />
        </mxCell>
        <mxCell id="DbnUBTk9ZXZ1jzMU4C6u-20" value="View Home Dashboard" style="ellipse;whiteSpace=wrap;html=1;" vertex="1" parent="1">
          <mxGeometry x="265" y="780" width="145" height="70" as="geometry" />
        </mxCell>
      </root>
    </mxGraphModel>
  </diagram>
</mxfile>
